# Blender v2.80 (sub 75) OBJ File: 'cubo_coisado.blend'
# www.blender.org
o Cube
v 0.916881 1.600674 -1.912225
v 0.089758 0.260931 -3.195915
v 0.928349 0.669266 1.209836
v 0.776989 -0.898760 1.020083
v -2.604364 4.308764 -1.805965
v -1.223011 -0.898760 -0.979917
v -1.223011 1.101240 1.020083
v -1.223011 -0.898760 1.020083
vn 0.4283 0.7857 0.4464
vn -0.0509 -0.0509 0.9974
vn -0.9717 -0.1671 0.1671
vn 0.2011 -0.9587 -0.2011
vn 0.9572 -0.2411 -0.1599
vn -0.4258 0.0272 -0.9044
s off
f 1//1 5//1 7//1 3//1
f 4//2 3//2 7//2 8//2
f 8//3 7//3 5//3 6//3
f 6//4 2//4 4//4 8//4
f 2//5 1//5 3//5 4//5
f 6//6 5//6 1//6 2//6
