# Blender v2.79 (sub 0) OBJ File: ''
# www.blender.org
o Cube_Cube.002
v -0.731144 1.176587 -0.075794
v -0.731144 1.464408 -0.075794
v -0.731144 1.176587 -0.493117
v -0.731144 1.464408 -0.493117
v 0.765347 1.176587 -0.075794
v 0.765347 1.464408 -0.075794
v 0.765347 1.176587 -0.493117
v 0.765347 1.464408 -0.493117
vt 0.142228 1.660249
vt 1.142228 0.660249
vt 0.142228 0.660249
vt 0.008551 1.660249
vt 1.008551 0.660249
vt 0.008551 0.660249
vt 0.142228 1.660249
vt -0.857772 0.660249
vt 0.142228 0.660249
vt 0.008551 1.660249
vt -0.991449 0.660249
vt 0.008551 0.660249
vt 1.008551 0.142228
vt 0.008551 -0.857772
vt 0.008551 0.142228
vt -0.991449 0.142228
vt 0.008551 -0.857772
vt 0.008551 0.142228
vt 1.142228 1.660249
vt 1.008551 1.660249
vt -0.857772 1.660249
vt -0.991449 1.660249
vt 1.008551 -0.857772
vt -0.991449 -0.857772
vn -1.0000 0.0000 0.0000
vn 0.0000 0.0000 -1.0000
vn 1.0000 0.0000 0.0000
vn 0.0000 0.0000 1.0000
vn 0.0000 -1.0000 0.0000
vn 0.0000 1.0000 0.0000
s off
f 2/1/1 3/2/1 1/3/1
f 4/4/2 7/5/2 3/6/2
f 8/7/3 5/8/3 7/9/3
f 6/10/4 1/11/4 5/12/4
f 7/13/5 1/14/5 3/15/5
f 4/16/6 6/17/6 8/18/6
f 2/1/1 4/19/1 3/2/1
f 4/4/2 8/20/2 7/5/2
f 8/7/3 6/21/3 5/8/3
f 6/10/4 2/22/4 1/11/4
f 7/13/5 5/23/5 1/14/5
f 4/16/6 2/24/6 6/17/6
